<svg width="32" height="32" viewBox="0 0 32 32" fill="none" xmlns="http://www.w3.org/2000/svg">
<path d="M30.25 14.182L29.374 13.306C29.014 12.946 28.797 12.138 28.929 11.646L29.249 10.449C29.427 9.78799 29.335 9.09499 28.99 8.49999C28.646 7.90399 28.093 7.47899 27.432 7.30199L26.234 6.98099C25.742 6.84899 25.151 6.25799 25.018 5.76599L24.698 4.56899C24.34 3.22999 22.894 2.38699 21.55 2.75099L20.354 3.07099C19.893 3.19299 19.037 2.96899 18.694 2.62699L17.817 1.74899C16.85 0.783994 15.152 0.782994 14.183 1.74999L13.306 2.62699C12.963 2.97199 12.104 3.19499 11.646 3.07199L10.449 2.75099C9.104 2.39299 7.659 3.23199 7.3 4.56899L6.981 5.76499C6.849 6.25799 6.257 6.84999 5.765 6.98099L4.569 7.30099C3.907 7.47899 3.353 7.90499 3.009 8.50099C2.665 9.09699 2.574 9.78799 2.752 10.447L3.072 11.645C3.204 12.138 2.989 12.945 2.627 13.305L1.752 14.181C1.267 14.667 1 15.312 1 16C1 16.688 1.266 17.333 1.75 17.817L2.625 18.692C2.985 19.053 3.202 19.862 3.071 20.354L2.751 21.551C2.574 22.212 2.666 22.905 3.01 23.5C3.354 24.096 3.908 24.521 4.569 24.697L5.764 25.017C6.258 25.15 6.849 25.742 6.982 26.233L7.302 27.43C7.66 28.766 9.105 29.605 10.45 29.247L11.646 28.927C12.108 28.804 12.963 29.028 13.307 29.371L14.183 30.247C14.667 30.733 15.313 31 16.001 31C16.689 31 17.334 30.733 17.818 30.249L18.696 29.373C19.039 29.028 19.883 28.802 20.357 28.929L21.551 29.248C21.767 29.306 21.99 29.336 22.213 29.336H22.214C23.376 29.336 24.399 28.553 24.699 27.43L25.018 26.236C25.151 25.743 25.743 25.151 26.235 25.019L27.432 24.699C28.801 24.33 29.616 22.917 29.247 21.552L28.928 20.355C28.796 19.862 29.012 19.054 29.372 18.694L30.249 17.818C31.252 16.813 31.251 15.183 30.25 14.182ZM28.836 16.402L27.96 17.278C27.095 18.143 26.681 19.688 26.998 20.87L27.317 22.068C27.397 22.366 27.213 22.686 26.915 22.766L25.719 23.086C24.537 23.402 23.406 24.533 23.088 25.717L22.769 26.912C22.691 27.204 22.374 27.395 22.069 27.315L20.876 26.996C19.716 26.687 18.119 27.119 17.282 27.958L16.405 28.834C16.192 29.047 15.812 29.047 15.598 28.834L14.722 27.959C14.074 27.31 12.995 26.89 11.973 26.89C11.675 26.89 11.391 26.926 11.129 26.996L9.934 27.316C9.635 27.395 9.312 27.203 9.234 26.914L8.914 25.716C8.596 24.534 7.465 23.404 6.283 23.086L5.086 22.766C4.941 22.727 4.819 22.632 4.742 22.499C4.665 22.367 4.644 22.214 4.683 22.068L5.004 20.87C5.319 19.688 4.905 18.144 4.041 17.278L3.165 16.402C3.059 16.297 3 16.153 3 16C3 15.911 3.021 15.741 3.165 15.598L4.04 14.722C4.906 13.857 5.32 12.313 5.003 11.13L4.683 9.93099C4.645 9.78499 4.665 9.63299 4.741 9.49999C4.818 9.36699 4.94 9.27199 5.086 9.23299L6.282 8.91299C7.464 8.59699 8.595 7.46599 8.913 6.28199L9.232 5.08599C9.311 4.79599 9.642 4.60299 9.93 4.68299L11.126 5.00399C12.287 5.31499 13.882 4.87999 14.719 4.04099L15.595 3.16499C15.808 2.95199 16.191 2.95299 16.402 3.16399L17.278 4.04099C18.115 4.87799 19.71 5.31399 20.87 5.00299L22.066 4.68299C22.364 4.60599 22.688 4.79399 22.765 5.08499L23.085 6.28299C23.403 7.46599 24.535 8.59599 25.715 8.91099L26.912 9.23199C27.058 9.27099 27.18 9.36599 27.257 9.49899C27.333 9.63199 27.355 9.78499 27.316 9.93099L26.996 11.129C26.68 12.312 27.094 13.856 27.959 14.72L28.835 15.596C29.055 15.814 29.054 16.184 28.836 16.402Z" fill="white"/>
<path d="M21.293 11.293L14 18.586L10.707 15.293C10.316 14.902 9.68401 14.902 9.29301 15.293C8.90201 15.684 8.90201 16.316 9.29301 16.707L13.293 20.707C13.488 20.902 13.744 21 14 21C14.256 21 14.512 20.902 14.707 20.707L22.707 12.707C23.098 12.316 23.098 11.684 22.707 11.293C22.316 10.902 21.684 10.902 21.293 11.293Z" fill="white"/>
</svg>
