<!-- icon666.com - MILLIONS vector ICONS FREE --><svg version="1.1" id="Capa_1" xmlns="http://www.w3.org/2000/svg" xmlns:xlink="http://www.w3.org/1999/xlink" x="0px" y="0px" viewBox="0 0 512 512" style="enable-background:new 0 0 512 512;" xml:space="preserve"><g><g><path d="M480,192L480,192l-42.965,0c-2.24-6.315-4.853-12.576-7.797-18.72l30.421-30.411c6.048-6.037,9.376-14.08,9.376-22.635 s-3.328-16.587-9.376-22.624L414.4,52.352c-12.096-12.096-33.173-12.096-45.259,0L338.72,82.773 c-6.144-2.955-12.405-5.557-18.72-7.808V32c0-17.643-14.357-32-32-32h-64c-17.643,0-32,14.357-32,32v42.965 c-6.315,2.24-12.576,4.853-18.72,7.797l-30.411-30.421c-12.085-12.096-33.173-12.096-45.259,0L52.352,97.6 c-6.048,6.048-9.376,14.08-9.376,22.635s3.328,16.587,9.376,22.635l30.421,30.411c-2.955,6.144-5.557,12.405-7.808,18.72H32 c-17.643,0-32,14.357-32,32v64c0,17.643,14.357,32,32,32h42.965c2.24,6.315,4.853,12.576,7.797,18.72l-30.421,30.411 c-6.048,6.037-9.376,14.08-9.376,22.635s3.328,16.587,9.376,22.624l45.248,45.259c12.096,12.096,33.173,12.096,45.259,0 l30.411-30.421c6.155,2.944,12.405,5.557,18.72,7.797V480c0,17.643,14.357,32,32,32h64c17.643,0,32-14.357,32-32v-42.965 c6.315-2.24,12.576-4.853,18.72-7.797l30.411,30.421c12.085,12.096,33.173,12.096,45.259,0l45.259-45.248 c6.048-6.048,9.376-14.08,9.376-22.635s-3.328-16.587-9.376-22.635l-30.421-30.411c2.944-6.155,5.557-12.405,7.797-18.72H480 c17.643,0,32-14.357,32-32v-64C512,206.357,497.643,192,480,192z M480,298.667h-50.667c-4.683,0-8.821,3.061-10.197,7.531 c-3.083,10.048-7.232,20-12.331,29.611c-2.197,4.139-1.429,9.227,1.877,12.544l35.872,35.872c2.016,2.016,3.125,4.693,3.125,7.552 c0,2.859-1.109,5.525-3.125,7.541l-45.259,45.259c-4.021,4.032-11.051,4.032-15.083,0l-35.872-35.872 c-3.317-3.317-8.395-4.085-12.544-1.877c-9.6,5.099-19.563,9.248-29.611,12.331c-4.459,1.355-7.52,5.493-7.52,10.176V480 c0,5.877-4.789,10.667-10.667,10.667h-64c-5.877,0-10.667-4.789-10.667-10.667v-50.667c0-4.683-3.061-8.821-7.531-10.197 c-10.048-3.083-20-7.232-29.611-12.331c-1.579-0.843-3.296-1.248-4.992-1.248c-2.763,0-5.504,1.077-7.552,3.125l-35.872,35.872 c-4.032,4.032-11.061,4.032-15.093,0l-45.259-45.259c-2.016-2.005-3.125-4.683-3.125-7.541c0-2.859,1.109-5.536,3.125-7.552 l35.872-35.872c3.317-3.317,4.075-8.405,1.877-12.544c-5.099-9.6-9.248-19.563-12.331-29.611 c-1.355-4.448-5.493-7.509-10.176-7.509H32c-5.877,0-10.667-4.789-10.667-10.667v-64c0-5.877,4.789-10.667,10.667-10.667h50.667 c4.683,0,8.821-3.061,10.197-7.531c3.083-10.048,7.232-20,12.331-29.611c2.197-4.139,1.429-9.227-1.877-12.544l-35.872-35.872 c-2.016-2.016-3.125-4.693-3.125-7.552c0-2.859,1.109-5.525,3.125-7.541l45.259-45.259c4.021-4.032,11.051-4.032,15.083,0 l35.872,35.872c3.307,3.307,8.395,4.085,12.544,1.877c9.6-5.099,19.563-9.248,29.611-12.331c4.459-1.355,7.52-5.493,7.52-10.176 V32c0-5.877,4.789-10.667,10.667-10.667h64c5.877,0,10.667,4.789,10.667,10.667v50.667c0,4.683,3.061,8.821,7.531,10.197 c10.048,3.083,20,7.232,29.611,12.331c4.149,2.208,9.248,1.44,12.544-1.877l35.872-35.872c4.032-4.032,11.061-4.032,15.093,0 l45.259,45.259c2.016,2.005,3.125,4.683,3.125,7.541c0,2.859-1.109,5.536-3.125,7.552l-35.872,35.872 c-3.317,3.317-4.075,8.405-1.877,12.544c5.099,9.6,9.248,19.563,12.331,29.611c1.355,4.448,5.493,7.509,10.176,7.509H480 c5.877,0,10.667,4.789,10.667,10.667l0,64C490.667,293.877,485.877,298.667,480,298.667z"></path></g></g><g><g><path d="M256,160c-52.928,0-96,43.072-96,96s43.072,96,96,96s96-43.072,96-96S308.928,160,256,160z M256,330.667 c-41.173,0-74.667-33.493-74.667-74.667s33.493-74.667,74.667-74.667s74.667,33.493,74.667,74.667S297.173,330.667,256,330.667z"></path></g></g><g><g><path d="M256,213.333c-23.531,0-42.667,19.136-42.667,42.667s19.136,42.667,42.667,42.667c5.888,0,10.667-4.779,10.667-10.667 s-4.779-10.667-10.667-10.667c-11.765,0-21.333-9.568-21.333-21.333c0-11.765,9.568-21.333,21.333-21.333 s21.333,9.568,21.333,21.333c0,5.888,4.779,10.667,10.667,10.667s10.667-4.779,10.667-10.667 C298.667,232.469,279.531,213.333,256,213.333z"></path></g></g><g><g><path d="M256,106.667c-82.347,0-149.333,66.987-149.333,149.333c0,5.888,4.779,10.667,10.667,10.667S128,261.888,128,256 c0-70.581,57.419-128,128-128c5.888,0,10.667-4.779,10.667-10.667S261.888,106.667,256,106.667z"></path></g></g><g><g><path d="M394.667,245.333c-5.888,0-10.667,4.779-10.667,10.667c0,70.581-57.419,128-128,128c-5.888,0-10.667,4.779-10.667,10.667 s4.779,10.667,10.667,10.667c82.347,0,149.333-66.987,149.333-149.333C405.333,250.112,400.555,245.333,394.667,245.333z"></path></g></g></svg>