<!-- icon666.com - MILLIONS vector ICONS FREE --><svg id="Capa_1" enable-background="new 0 0 480 480" viewBox="0 0 480 480" xmlns="http://www.w3.org/2000/svg"><g><path d="m432 0h-384c-26.51 0-48 21.49-48 48v384c0 26.51 21.49 48 48 48h384c26.51 0 48-21.49 48-48v-384c0-26.51-21.49-48-48-48zm16 48v176h-192v-192h176c8.837 0 16 7.163 16 16zm-400-16h176v192h-192v-176c0-8.837 7.163-16 16-16zm-16 400v-176h192v192h-176c-8.837 0-16-7.163-16-16zm400 16h-176v-192h192v176c0 8.837-7.163 16-16 16z" fill="#000000" style="fill: rgb(255, 255, 255);"></path><path d="m80 144h32v32c0 8.837 7.163 16 16 16s16-7.163 16-16v-32h32c8.837 0 16-7.163 16-16s-7.163-16-16-16h-32v-32c0-8.837-7.163-16-16-16s-16 7.163-16 16v32h-32c-8.837 0-16 7.163-16 16s7.163 16 16 16z" fill="#000000" style="fill: rgb(255, 255, 255);"></path><path d="m150.624 352 22.624-22.624c6.356-6.139 6.532-16.268.394-22.624s-16.268-6.532-22.624-.394c-.133.129-.265.26-.394.394l-22.624 22.624-22.624-22.624c-6.139-6.356-16.268-6.532-22.624-.393s-6.532 16.268-.393 22.624c.129.133.26.265.393.393l22.624 22.624-22.624 22.624c-6.246 6.248-6.246 16.376 0 22.624 6.28 6.168 16.344 6.168 22.624 0l22.624-22.624 22.624 22.624c6.139 6.356 16.268 6.532 22.624.394 6.356-6.139 6.532-16.268.394-22.624-.129-.133-.26-.265-.394-.394z" fill="#000000" style="fill: rgb(255, 255, 255);"></path><path d="m304 144h96c8.837 0 16-7.163 16-16s-7.163-16-16-16h-96c-8.837 0-16 7.163-16 16s7.163 16 16 16z" fill="#000000" style="fill: rgb(255, 255, 255);"></path><path d="m400 304h-96c-8.837 0-16 7.163-16 16s7.163 16 16 16h96c8.837 0 16-7.163 16-16s-7.163-16-16-16z" fill="#000000" style="fill: rgb(255, 255, 255);"></path><path d="m400 368h-96c-8.837 0-16 7.163-16 16s7.163 16 16 16h96c8.837 0 16-7.163 16-16s-7.163-16-16-16z" fill="#000000" style="fill: rgb(255, 255, 255);"></path></g></svg>