<!-- icon666.com - MILLIONS vector ICONS FREE --><svg version="1.1" id="Layer_1" xmlns="http://www.w3.org/2000/svg" xmlns:xlink="http://www.w3.org/1999/xlink" x="0px" y="0px" viewBox="0 0 512 512" style="enable-background:new 0 0 512 512;" xml:space="preserve"><g><g><path d="M452.923,0C435.636,0,76.364,0,59.077,0C26.502,0,0,26.502,0,59.077c0,17.287,0,376.559,0,393.846 C0,485.498,26.502,512,59.077,512c17.287,0,376.559,0,393.846,0C485.498,512,512,485.498,512,452.923 c0-17.287,0-376.559,0-393.846C512,26.502,485.498,0,452.923,0z M236.308,472.615H59.077c-10.858,0-19.692-8.834-19.692-19.692 V275.692h196.923V472.615z M236.308,236.308H39.385V59.077c0-10.858,8.834-19.692,19.692-19.692h177.231V236.308z M472.615,452.923c0,10.858-8.834,19.692-19.692,19.692H275.692V275.692h196.923V452.923z M472.615,236.308H275.692V39.385 h177.231c10.858,0,19.692,8.834,19.692,19.692V236.308z"></path></g></g><g><g><path d="M178.004,118.154h-20.466V97.688c0-10.875-8.817-19.692-19.692-19.692c-10.875,0-19.692,8.817-19.692,19.692v20.466 H97.688c-10.875,0-19.692,8.817-19.692,19.692c0,10.875,8.817,19.692,19.692,19.692h20.466v20.466 c0,10.875,8.817,19.692,19.692,19.692c10.875,0,19.692-8.817,19.692-19.692v-20.466h20.466c10.875,0,19.692-8.817,19.692-19.692 C197.696,126.971,188.879,118.154,178.004,118.154z"></path></g></g><g><g><path d="M414.312,118.154h-80.316c-10.875,0-19.692,8.817-19.692,19.692c0,10.875,8.817,19.692,19.692,19.692h80.316 c10.875,0,19.692-8.817,19.692-19.692C434.004,126.971,425.187,118.154,414.312,118.154z"></path></g></g><g><g><path d="M414.312,382.858h-80.316c-10.875,0-19.692,8.817-19.692,19.692s8.817,19.692,19.692,19.692h80.316 c10.875,0,19.692-8.817,19.692-19.692S425.187,382.858,414.312,382.858z"></path></g></g><g><g><path d="M414.312,326.065h-80.316c-10.875,0-19.692,8.817-19.692,19.692c0,10.875,8.817,19.692,19.692,19.692h80.316 c10.875,0,19.692-8.817,19.692-19.692C434.004,334.882,425.187,326.065,414.312,326.065z"></path></g></g><g><g><path d="M165.695,374.154l14.471-14.471c7.69-7.69,7.69-20.16,0-27.849c-7.689-7.689-20.158-7.689-27.849,0l-14.471,14.47 l-14.47-14.471c-7.69-7.69-20.158-7.69-27.849,0c-7.691,7.689-7.691,20.158,0,27.849l14.47,14.473l-14.471,14.471 c-7.689,7.689-7.689,20.158,0,27.849c7.69,7.69,20.158,7.69,27.849,0l14.471-14.47l14.47,14.471 c7.689,7.689,20.157,7.692,27.849,0c7.69-7.689,7.69-20.158,0-27.849L165.695,374.154z"></path></g></g></svg>