<!-- icon666.com - MILLIONS vector ICONS FREE --><svg id="Layer_1" enable-background="new 0 0 512.002 512.002" viewBox="0 0 512.002 512.002" xmlns="http://www.w3.org/2000/svg"><g><path d="m487.987 77.507c-17.712 0-383.313 0-400.81 0-13.242 0-24.015 10.773-24.015 24.015v37.535h-39.147c-13.243 0-24.015 10.773-24.015 24.015v247.409c0 13.242 10.772 24.015 24.015 24.015h400.81c13.242 0 24.015-10.773 24.015-24.015v-37.536h39.148c13.242 0 24.015-10.772 24.015-24.014v-150.47c0-4.142-3.357-7.5-7.5-7.5s-7.5 3.358-7.5 7.5v39.863c-16.787-.117-32.929-1.433-48.163-3.935 0-10.348 0-61.018 0-71.318 0-13.242-10.772-24.015-24.015-24.015h-124.318c-9.149-14.416-16.786-30.021-22.784-46.55h210.265c4.97 0 9.015 4.043 9.015 9.015v61.939c0 4.142 3.357 7.5 7.5 7.5s7.5-3.358 7.5-7.5v-61.939c-.001-13.246-10.778-24.014-24.016-24.014zm-39.148 172.055c15.315 2.382 31.449 3.636 48.163 3.747v23.853c-16.036 1.849-32.135 2.488-48.163 1.896 0-13.036 0-15.214 0-29.496zm0 44.498c15.724.556 31.632.012 48.163-1.807v56.678c0 4.97-4.044 9.014-9.015 9.014h-39.148zm-370.676-192.538c0-4.971 4.044-9.015 9.015-9.015h86.35c4.167 15.953 10.04 31.547 17.544 46.55h-112.909zm355.676 308.958c0 4.971-4.044 9.015-9.015 9.015h-400.809c-4.971 0-9.015-4.044-9.015-9.015v-147.441h418.839zm-9.015-256.423c4.971 0 9.015 4.044 9.015 9.015v28.072h-197.76c-4.143 0-7.5 3.358-7.5 7.5s3.357 7.5 7.5 7.5h197.76v41.896h-418.839v-41.896h186.079c4.143 0 7.5-3.358 7.5-7.5s-3.357-7.5-7.5-7.5h-186.079v-28.072c0-4.971 4.044-9.015 9.015-9.015zm-141.863-15h-74.981c-8.09-14.936-14.433-30.543-18.922-46.55h72.774c5.573 16.392 12.651 31.985 21.129 46.55z"></path><path d="m61.579 357.445h79c4.143 0 7.5-3.358 7.5-7.5s-3.357-7.5-7.5-7.5h-79c-4.143 0-7.5 3.358-7.5 7.5s3.358 7.5 7.5 7.5z"></path><path d="m61.579 299.06h18.167c4.143 0 7.5-3.358 7.5-7.5s-3.357-7.5-7.5-7.5h-18.167c-4.143 0-7.5 3.358-7.5 7.5s3.358 7.5 7.5 7.5z"></path><path d="m113.913 299.06h18.166c4.143 0 7.5-3.358 7.5-7.5s-3.357-7.5-7.5-7.5h-18.166c-4.143 0-7.5 3.358-7.5 7.5s3.358 7.5 7.5 7.5z"></path><path d="m166.246 299.06h18.167c4.143 0 7.5-3.358 7.5-7.5s-3.357-7.5-7.5-7.5h-18.167c-4.143 0-7.5 3.358-7.5 7.5s3.358 7.5 7.5 7.5z"></path><path d="m218.579 299.06h18.167c4.143 0 7.5-3.358 7.5-7.5s-3.357-7.5-7.5-7.5h-18.167c-4.143 0-7.5 3.358-7.5 7.5s3.358 7.5 7.5 7.5z"></path><path d="m61.579 388.445h79c4.143 0 7.5-3.358 7.5-7.5s-3.357-7.5-7.5-7.5h-79c-4.143 0-7.5 3.358-7.5 7.5s3.358 7.5 7.5 7.5z"></path><path d="m326.811 388.445h60c9.374 0 17-7.626 17-17v-33.635c0-9.374-7.626-17-17-17h-60c-9.374 0-17 7.626-17 17v33.634c0 9.375 7.626 17.001 17 17.001zm-2-50.635c0-1.084.916-2 2-2h60c1.084 0 2 .916 2 2v33.634c0 1.084-.916 2-2 2h-60c-1.084 0-2-.916-2-2z"></path></g></svg>