<!-- icon666.com - MILLIONS vector ICONS FREE --><svg version="1.1" id="Layer_1" xmlns="http://www.w3.org/2000/svg" xmlns:xlink="http://www.w3.org/1999/xlink" x="0px" y="0px" viewBox="0 0 512 512" style="enable-background:new 0 0 512 512;" xml:space="preserve"><g><g><path d="M385.869,258.624c-20.962,0-40.764,6.834-57.265,19.763c-3.256,2.551-3.827,7.258-1.276,10.512 c2.55,3.255,7.259,3.827,10.513,1.276c13.84-10.844,30.448-16.576,48.028-16.576c42.99,0,77.965,34.975,77.965,77.965 s-34.975,77.965-77.965,77.965s-77.965-34.975-77.965-77.965c0-14.701,4.13-29.034,11.944-41.451 c2.203-3.499,1.15-8.122-2.349-10.325c-3.5-2.203-8.124-1.15-10.326,2.349c-9.319,14.809-14.246,31.901-14.246,49.427 c0,51.248,41.693,92.942,92.942,92.942s92.942-41.693,92.942-92.942C478.811,300.318,437.118,258.624,385.869,258.624z"></path></g></g><g><g><path d="M444.6,355.25h-51.242v-51.242c0-4.135-3.353-7.488-7.488-7.488s-7.488,3.353-7.488,7.488v58.731 c0,4.135,3.353,7.488,7.488,7.488H444.6c4.135,0,7.488-3.353,7.488-7.488S448.735,355.25,444.6,355.25z"></path></g></g><g><g><path d="M457.539,247.837V117.946c0-19.518-15.88-35.398-35.399-35.398h-16.071V64.119c0-16.441-13.375-29.816-29.816-29.816 s-29.816,13.375-29.816,29.816v18.428h-38.689V64.119c0-16.441-13.375-29.816-29.816-29.816s-29.816,13.375-29.816,29.816v18.428 h-38.689V64.119c0-16.441-13.375-29.816-29.816-29.816s-29.816,13.375-29.816,29.816v18.428h-38.689V64.119 c0-16.441-13.375-29.816-29.816-29.816c-16.441,0-29.819,13.375-29.819,29.816v18.428H35.398C15.88,82.547,0,98.426,0,117.946 v3.694c0,4.135,3.353,7.488,7.488,7.488s7.488-3.353,7.488-7.488v-3.694c0-11.26,9.162-20.422,20.422-20.422h16.071 c0,0,0,18.427,0,18.428c0,16.441,13.375,29.816,29.816,29.816s29.816-13.375,29.816-29.817V97.524h38.689c0,0,0,18.427,0,18.428 c0,16.441,13.375,29.816,29.816,29.816s29.816-13.375,29.816-29.817V97.524h38.689c0,0,0,18.427,0,18.428 c0,16.441,13.375,29.816,29.816,29.816s29.816-13.375,29.816-29.817V97.524h38.689c0,0,0,18.427,0,18.428 c0,16.441,13.375,29.816,29.816,29.816s29.816-13.375,29.816-29.817V97.524h16.071c11.261,0,20.423,9.162,20.423,20.422v52.85 H14.976v-19.204c0-4.135-3.353-7.488-7.488-7.488S0,147.456,0,151.592v258.422c0,19.519,15.88,35.399,35.398,35.399h266.295 c22.342,20.06,51.856,32.284,84.176,32.284c26.987,0,52.732-8.41,74.454-24.32c3.337-2.444,4.06-7.13,1.616-10.466 c-2.444-3.337-7.131-4.059-10.466-1.616c-19.137,14.017-41.822,21.425-65.605,21.425c-61.291,0-111.154-49.864-111.154-111.154 s49.864-111.154,111.154-111.154c11.09,0,22.135,1.659,32.736,4.921c0.21,0.064,0.417,0.131,0.627,0.197 c45.04,14.203,77.792,56.364,77.792,106.036c0,25.627-8.933,50.635-25.152,70.419c-2.622,3.198-2.156,7.917,1.042,10.538 c3.199,2.622,7.917,2.155,10.538-1.042C501.861,409.028,512,380.647,512,351.566C512,308.621,490.419,270.625,457.539,247.837z M96.125,115.951c0,8.183-6.657,14.84-14.84,14.84c-8.183,0-14.84-6.656-14.84-14.84V64.119c0-8.183,6.656-14.84,14.84-14.84 c8.183,0,14.84,6.656,14.84,14.84V115.951z M194.447,115.951c0,8.183-6.657,14.84-14.84,14.84s-14.84-6.656-14.84-14.84V64.119 c0-8.183,6.657-14.84,14.84-14.84s14.84,6.656,14.84,14.84V115.951z M292.77,115.951c0,8.183-6.657,14.84-14.84,14.84 c-8.183,0-14.84-6.656-14.84-14.84V64.119c0-8.183,6.657-14.84,14.84-14.84c8.183,0,14.84,6.656,14.84,14.84V115.951z M391.092,115.951c0,8.183-6.657,14.84-14.84,14.84c-8.183,0-14.84-6.656-14.84-14.84V64.119c0-8.183,6.657-14.84,14.84-14.84 c8.183,0,14.84,6.656,14.84,14.84V115.951z M192.001,185.772h73.536v71.57h-73.536V185.772z M88.512,430.436H35.398 c-11.26,0-20.422-9.162-20.422-20.423v-51.148h73.535V430.436z M88.512,343.889H14.976v-71.57h73.535V343.889z M88.512,257.342 H14.976v-71.57h73.535V257.342z M103.488,272.319h73.535v71.57h-73.535V272.319z M177.025,430.436h-73.535v-71.57h73.535V430.436z M177.025,257.342h-73.535v-71.57h73.535V257.342z M192,272.319h73.536v41.42c-3.026,9.608-4.927,19.711-5.557,30.151H192V272.319 z M287.405,430.436h-95.404v-71.57h67.948C261.433,385.298,270.961,410.037,287.405,430.436z M280.514,282.303v-9.984h7.31 C285.23,275.522,282.79,278.854,280.514,282.303z M354.049,229.505c-19.551,5.1-37.265,14.789-51.929,27.837h-21.606v-71.57 h73.535V229.505z M442.562,238.87c-7.052-3.553-14.408-6.411-21.971-8.573c-0.161-0.046-0.323-0.092-0.483-0.138 c-11.123-3.142-22.679-4.725-34.237-4.725c-5.712,0.001-11.333,0.389-16.845,1.128v-40.792h73.536V238.87z"></path></g></g></svg>