<!-- icon666.com - MILLIONS vector ICONS FREE --><svg version="1.1" id="Capa_1" xmlns="http://www.w3.org/2000/svg" xmlns:xlink="http://www.w3.org/1999/xlink" x="0px" y="0px" viewBox="0 0 512 512" style="enable-background:new 0 0 512 512;" xml:space="preserve"><g><g><path d="M261.553,71.748h-10.892c-0.381,0-0.683-0.311-0.683-0.683c0-27.617-22.467-50.084-50.084-50.084h-36.662v-5.22 C163.232,7.067,156.165,0,147.471,0H16.182C7.488,0,0.421,7.067,0.421,15.761v121.552c0,8.694,7.067,15.761,15.761,15.761H31.34 c3.614,23.07,23.632,40.768,47.695,40.768c24.073,0,44.091-17.699,47.715-40.768c9.414,0,31.369,0,40.879,0 c3.614,23.07,23.632,40.768,47.705,40.768c24.083,0,44.101-17.729,47.715-40.818c12.669-0.773,22.738-11.324,22.738-24.184V95.982 C285.787,82.62,274.915,71.748,261.553,71.748z M79.035,178.783c-18.419,0-33.229-15.006-33.229-33.239 c0-18.229,14.828-33.229,33.229-33.229c15.741,0,28.952,10.993,32.376,25.7C116.23,158.753,100.459,178.783,79.035,178.783z M148.174,15.761v12.749v109.505h-21.423c-3.634-23.059-23.642-40.758-47.715-40.758c-24.063,0-44.071,17.699-47.695,40.758 H16.182c-1.387,0-0.375,6.301-0.703-122.254c0-0.391,0.311-0.754,0.703-0.754c97.383,0.23,125.199-0.194,131.992,0V15.761z M247.7,153.074c-3.413,14.717-16.634,25.71-32.366,25.71c-21.308,0-37.222-19.908-32.376-40.768 c3.423-14.707,16.645-25.7,32.376-25.7C236.649,112.316,252.541,132.236,247.7,153.074z M270.729,128.84 c0,4.558-3.343,8.352-7.71,9.055c-3.684-23.009-23.662-40.638-47.685-40.638c-24.073,0-44.081,17.699-47.705,40.758h-4.397V36.04 h36.662c19.315,0,35.026,15.711,35.026,35.026c0,8.674,7.057,15.741,15.741,15.741h10.892c5.06,0,9.176,4.116,9.176,9.176V128.84z "></path></g></g><g><g><path d="M105.207,138.015c-3.273-11.374-13.763-19.706-26.172-19.706c-18.141,0-31.182,17.483-26.172,34.765 c3.273,11.374,13.763,19.706,26.172,19.706C97.177,172.78,110.217,155.297,105.207,138.015z M69.478,153.074 c-3.497-4.391-3.495-10.668,0-15.058c7.215-9.165,21.734-3.82,21.734,7.529C91.213,156.776,76.748,162.308,69.478,153.074z"></path></g></g><g><g><path d="M241.506,138.015c-8.598-29.882-53.407-24.181-53.407,7.529c0,14.864,12.07,27.236,27.236,27.236 C233.476,172.78,246.516,155.297,241.506,138.015z M224.891,153.074c-7.221,9.173-21.734,3.809-21.734-7.529 c0-6.717,5.473-12.177,12.177-12.177C225.613,133.367,231.103,145.271,224.891,153.074z"></path></g></g><g><g><path d="M196.2,42.967h-14.476c-7.087,0-12.86,5.772-12.86,12.86v20.871c0,7.087,5.772,12.86,12.86,12.86h30.247 c7.088,0,12.86-5.772,12.86-12.86v-5.1C224.831,55.817,211.981,42.967,196.2,42.967z M209.773,74.499h-25.85V58.025H196.2 c7.479,0,13.573,6.094,13.573,13.573V74.499z"></path></g></g><g><g><path d="M323.057,258.692c-49.846,49.822-41.135,132.521,18.009,170.85c8.726,5.655,6.763,8.127,44.832,73.604 c5.357,9.462,15.081,8.824,15.184,8.852c6.37,0,12.046-3.309,15.184-8.852c38.064-65.462,36.08-67.93,44.853-73.619 c31.597-20.487,50.461-55.168,50.461-92.773C511.579,239.05,392.735,189.047,323.057,258.692z M452.927,416.893 c-5.311,3.443-9.733,8.115-12.787,13.51c-37.646,64.996-36.554,67.159-39.059,66.537c-2.988,0-0.578-0.099-39.059-66.538 c-3.056-5.398-7.47-10.065-12.768-13.497c-27.779-18.002-44.079-48.491-43.603-81.559 c1.197-83.042,102.531-125.627,162.441-66.548C511.648,311.75,504.036,383.756,452.927,416.893z"></path></g></g><g><g><path d="M376.713,266.309c-4.176,1.494-6.351,6.091-4.857,10.267s6.092,6.352,10.267,4.857 c36.62-13.097,75.24,14.206,75.24,53.012c0,31.033-25.248,56.281-56.281,56.281c-49.564,0-74.545-59.502-40.825-95.024 c3.054-3.216,2.922-8.3-0.295-11.354c-3.216-3.054-8.3-2.922-11.354,0.295c-43.345,45.659-11.242,122.144,52.474,122.144 c39.891,0,72.344-32.453,72.344-72.344C473.425,284.554,423.776,249.477,376.713,266.309z"></path></g></g><g><g><path d="M427.939,87.341H304.47c-4.158,0-7.529,3.371-7.529,7.529s3.371,7.529,7.529,7.529h123.469 c17.16,0,31.12,13.96,31.12,31.12v10.039c0,17.16-13.96,31.12-31.12,31.12h-94.477c-25.463,0-46.178,20.715-46.178,46.178v1.006 c0,17.16-13.96,31.12-31.12,31.12H202.05c-4.158,0-7.529,3.371-7.529,7.529s3.371,7.529,7.529,7.529h54.114 c25.463,0,46.178-20.715,46.178-46.178v-1.006c0-17.16,13.96-31.12,31.12-31.12h94.477c25.463,0,46.178-20.715,46.178-46.178 v-10.039C474.117,108.056,453.401,87.341,427.939,87.341z"></path></g></g><g><g><path d="M358.058,492.912H168.823c-11.359,0-21.818-6.191-27.295-16.158c-2.003-3.644-6.581-4.976-10.225-2.971 c-3.644,2.003-4.975,6.581-2.972,10.225c8.122,14.781,23.638,23.963,40.491,23.963h189.235c4.158,0,7.529-3.371,7.529-7.529 C365.587,496.283,362.216,492.912,358.058,492.912z"></path></g></g><g><g><path d="M187.899,332.163H76.926c-17.16,0-31.12-13.96-31.12-31.12v-1.883c0-17.16,13.96-31.12,31.12-31.12h95.007 c4.158,0,7.529-3.371,7.529-7.529s-3.371-7.529-7.529-7.529H76.926c-25.463,0-46.178,20.715-46.178,46.178v1.883 c0,25.463,20.715,46.178,46.178,46.178h110.972c17.16,0,31.12,13.96,31.12,31.12v6.153c0,17.16-13.96,31.12-31.12,31.12h-19.076 c-20.548,0-38.817,13.792-44.425,33.539c-1.135,4,1.186,8.164,5.186,9.3c3.992,1.135,8.161-1.179,9.299-5.185 c3.78-13.304,16.09-22.596,29.94-22.596h19.076c25.463,0,46.178-20.715,46.178-46.178v-6.153 C234.077,352.879,213.362,332.163,187.899,332.163z"></path></g></g><g><g><path d="M401.082,292.64c-4.158,0-7.529,3.371-7.529,7.529v36.003l-22.589,17.817c-3.265,2.575-3.825,7.309-1.249,10.574 c2.575,3.266,7.308,3.825,10.573,1.25l22.886-18.051c3.455-2.725,5.437-6.811,5.437-11.211v-36.381 C408.611,296.011,405.24,292.64,401.082,292.64z"></path></g></g></svg>