<!-- icon666.com - MILLIONS vector ICONS FREE --><svg viewBox="-5 0 457 457.1744" xmlns="http://www.w3.org/2000/svg"><path d="m333.03125 221.191406c.007812-7.480468-3.40625-14.550781-9.265625-19.199218 6.179687-7.28125 7.566406-17.488282 3.554687-26.152344-4.015624-8.667969-12.699218-14.210938-22.246093-14.203125h-54.472657l2.25-5.953125c3.542969-9.328125 5.351563-19.222656 5.34375-29.199219v-.886719c-.003906-7.585937-3.078124-14.847656-8.527343-20.128906-5.445313-5.28125-12.796875-8.132812-20.378907-7.90625-15.347656.816406-27.332031 13.566406-27.199218 28.933594 0 7.277344-10.226563 24-18.511719 35.152344h-61.433594c-3.867187 0-7 3.132812-7 7v140.113281c0 3.867187 3.132813 7 7 7h171.96875c8.84375.003906 17.003907-4.757813 21.351563-12.457031 4.34375-7.703126 4.207031-17.148438-.367188-24.71875 7.03125-3.148438 12.171875-9.425782 13.875-16.941407 1.707032-7.515625-.226562-15.394531-5.210937-21.269531 5.855469-4.644531 9.269531-11.710938 9.269531-19.183594zm-203.886719-45.539062h50.890625v126.109375h-50.890625zm179.371094 56.054687h-3.445313c-3.867187 0-7 3.132813-7 7 0 3.867188 3.132813 7 7 7 5.804688 0 10.511719 4.707031 10.511719 10.515625 0 5.804688-4.707031 10.511719-10.511719 10.511719h-10.957031c-3.867187 0-7 3.136719-7 7 0 3.867187 3.132813 7 7 7 5.804688 0 10.511719 4.707031 10.511719 10.515625 0 5.804688-4.707031 10.511719-10.511719 10.511719h-100.078125v-130.742188c5.933594-7.847656 22.054688-30.480469 22.054688-44.519531-.183594-7.8125 5.804687-14.390625 13.597656-14.945312 3.804688-.117188 7.496094 1.3125 10.230469 3.960937 2.730469 2.648437 4.273437 6.292969 4.273437 10.097656v.886719c.007813 8.28125-1.496094 16.496094-4.433594 24.238281l-5.835937 15.449219c-.8125 2.152344-.519531 4.5625.789063 6.457031 1.304687 1.890625 3.457031 3.019531 5.757812 3.023438h64.601562c5.804688 0 10.511719 4.707031 10.511719 10.511719 0 5.808593-4.707031 10.515624-10.511719 10.515624-3.867187 0-7 3.132813-7 7 0 3.867188 3.132813 7 7 7h3.445313c5.808594 0 10.515625 4.707032 10.515625 10.515626 0 5.808593-4.707031 10.515624-10.515625 10.515624zm-158.746094 29.464844c-10.0625 0-18.214843 8.15625-18.214843 18.214844 0 10.0625 8.152343 18.214843 18.214843 18.214843 10.058594 0 18.214844-8.152343 18.214844-18.214843-.011719-10.054688-8.160156-18.203125-18.214844-18.214844zm0 22.425781c-2.328125 0-4.21875-1.886718-4.214843-4.214844 0-2.328124 1.886718-4.21875 4.214843-4.214843 2.332031 0 4.21875 1.890625 4.214844 4.21875s-1.890625 4.210937-4.214844 4.210937zm291.277344-71.675781c6.464844-10.152344 8.59375-22.46875 5.914063-34.203125-2.675782-11.730469-9.9375-21.90625-20.164063-28.25-10.21875-6.375-15.851563-18.066406-14.464844-30.03125 1.417969-11.949219-2.007812-23.972656-9.511719-33.378906-7.503906-9.410156-18.460937-15.425782-30.425781-16.707032-11.972656-1.304687-22.117187-9.386718-26.0625-20.765624-3.910156-11.382813-12.210937-20.726563-23.054687-25.949219-10.84375-5.21875-23.328125-5.886719-34.664063-1.84375-11.355469 4.011719-24.007812 1.125-32.496093-7.417969-8.460938-8.558594-19.996094-13.375-32.03125-13.375-12.035157 0-23.570313 4.816406-32.03125 13.375-8.488282 8.546875-21.144532 11.433594-32.496094 7.417969-11.339844-4.039063-23.816406-3.371094-34.660156 1.847656-10.839844 5.222656-19.144532 14.566406-23.054688 25.945313-3.9375 11.382812-14.085938 19.472656-26.058594 20.777343-11.96875 1.28125-22.925781 7.296875-30.425781 16.707031-7.503906 9.410157-10.929687 21.429688-9.515625 33.382813 1.390625 11.960937-4.242188 23.652344-14.457031 30.027344-10.226563 6.34375-17.488281 16.515625-20.164063 28.246093-2.679687 11.730469-.550781 24.042969 5.90625 34.195313 6.441406 10.175781 6.441406 23.152344 0 33.328125-6.460937 10.15625-8.589844 22.472656-5.914062 34.203125 2.679687 11.734375 9.941406 21.910156 20.164062 28.253906 10.222656 6.375 15.851563 18.066407 14.464844 30.027344-1.414062 11.953125 2.011719 23.972656 9.515625 33.382813 7.5 9.410156 18.457031 15.425781 30.425781 16.707031 11.96875 1.300781 22.117188 9.386719 26.058594 20.761719 3.910156 11.382812 12.214844 20.726562 23.058594 25.949218s23.324218 5.886719 34.664062 1.847656c11.351563-4.019531 24.007813-1.132812 32.496094 7.417969 8.460938 8.558594 19.996094 13.375 32.03125 13.375s23.570312-4.816406 32.03125-13.375c8.488281-8.546875 21.140625-11.433593 32.496094-7.417969 11.335937 4.039063 23.816406 3.371094 34.65625-1.851562 10.84375-5.21875 19.144531-14.5625 23.054687-25.945312 3.941407-11.378907 14.089844-19.46875 26.0625-20.773438 11.964844-1.28125 22.921875-7.296875 30.425781-16.707031 7.503907-9.410157 10.929688-21.429688 9.511719-33.382813-1.386719-11.960937 4.242188-23.652344 14.460938-30.027344 10.226562-6.34375 17.488281-16.519531 20.167969-28.25 2.679687-11.734374.550781-24.050781-5.914063-34.207031-6.433594-10.171875-6.433594-23.140625 0-33.316406zm-11.808594 40.84375c4.453125 7 5.921875 15.488281 4.074219 23.574219-1.84375 8.085937-6.851562 15.097656-13.898438 19.472656-14.828124 9.25-23 26.214844-20.984374 43.574219.976562 8.238281-1.386719 16.523437-6.558594 23.007812s-12.722656 10.628907-20.96875 11.511719c-17.375 1.898438-32.097656 13.636719-37.8125 30.152344-2.695313 7.84375-8.417969 14.285156-15.890625 17.882812-7.472657 3.597656-16.074219 4.058594-23.886719 1.273438-16.476562-5.832032-34.835938-1.640625-47.152344 10.761718-5.828125 5.898438-13.777344 9.21875-22.074218 9.21875-8.292969 0-16.242188-3.320312-22.074219-9.21875-12.308594-12.410156-30.675781-16.601562-47.152344-10.761718-7.8125 2.785156-16.414063 2.324218-23.886719-1.273438s-13.195312-10.039062-15.886718-17.882812c-5.714844-16.515625-20.441407-28.253906-37.8125-30.152344-8.25-.882812-15.800782-5.027344-20.972657-11.511719s-7.53125-14.769531-6.554687-23.007812c2.015625-17.359375-6.152344-34.328125-20.984375-43.574219-7.050781-4.375-12.054688-11.386719-13.902344-19.472656-1.84375-8.085938-.375-16.574219 4.078125-23.574219 9.347656-14.761719 9.347656-33.59375 0-48.359375-4.453125-6.996094-5.921875-15.484375-4.078125-23.574219 1.847656-8.085937 6.851563-15.097656 13.902344-19.46875 14.828125-9.25 23-26.214843 20.988281-43.574219-.976562-8.238281 1.382812-16.523437 6.554688-23.007812 5.171874-6.488281 12.722656-10.632812 20.972656-11.515625 17.371094-1.894531 32.097656-13.636719 37.8125-30.152344 2.691406-7.84375 8.414062-14.28125 15.886718-17.882812 7.472657-3.597657 16.074219-4.054688 23.886719-1.269531 16.476563 5.828124 34.839844 1.640624 47.152344-10.761719 5.832031-5.898438 13.78125-9.21875 22.074219-9.21875 8.296875 0 16.246094 3.320312 22.074218 9.21875 12.316407 12.402343 30.675782 16.589843 47.152344 10.761719 7.8125-2.785157 16.414063-2.328126 23.886719 1.269531 7.472656 3.601562 13.195313 10.039062 15.890625 17.882812 5.714844 16.515625 20.4375 28.257813 37.8125 30.152344 8.246094.882813 15.796875 5.027344 20.96875 11.515625 5.171875 6.484375 7.535156 14.769531 6.558594 23.007812-2.019532 17.359376 6.152344 34.328126 20.984375 43.574219 7.046875 4.371094 12.054687 11.382813 13.898437 19.46875 1.847656 8.089844.378906 16.578125-4.074218 23.574219-9.351563 14.765625-9.351563 33.59375-.003907 48.359375zm-205.148437-194.460937c-94.046875 0-170.28125 76.242187-170.28125 170.285156 0 94.042968 76.242187 170.28125 170.285156 170.28125 94.046875 0 170.28125-76.238282 170.28125-170.285156-.105469-94-76.285156-170.175782-170.285156-170.28125zm0 326.570312c-86.3125-.003906-156.28125-69.972656-156.28125-156.285156s69.96875-156.28125 156.28125-156.28125c86.3125-.003906 156.285156 69.964844 156.285156 156.277344-.097656 86.273437-70.011719 156.1875-156.285156 156.285156zm0 0"></path></svg>