<!-- icon666.com - MILLIONS vector ICONS FREE --><svg id="Layer_1" viewBox="0 0 64 64" xmlns="http://www.w3.org/2000/svg" data-name="Layer 1"><g fill="#232323"><path d="m38 11h-7a1 1 0 0 1 0-2h7a1 1 0 0 1 0 2z" fill="#232323" style="fill: rgb(0, 0, 0);"></path><path d="m34 53h-24a5.006 5.006 0 0 1 -5-5v-34a5.006 5.006 0 0 1 5-5h6a1 1 0 0 1 0 2h-6a3 3 0 0 0 -3 3v34a3 3 0 0 0 3 3h24a1 1 0 0 1 0 2z" fill="#232323" style="fill: rgb(0, 0, 0);"></path><path d="m27 11h-7a1 1 0 0 1 0-2h7a1 1 0 0 1 0 2z" fill="#232323" style="fill: rgb(0, 0, 0);"></path><path d="m52 35a1 1 0 0 1 -1-1v-20a3 3 0 0 0 -3-3h-6a1 1 0 0 1 0-2h6a5.006 5.006 0 0 1 5 5v20a1 1 0 0 1 -1 1z" fill="#232323" style="fill: rgb(0, 0, 0);"></path><path d="m52 19h-46a1 1 0 0 1 0-2h46a1 1 0 0 1 0 2z" fill="#232323" style="fill: rgb(0, 0, 0);"></path></g><path d="m33 48h-20a1 1 0 0 1 -1-1v-24a1 1 0 0 1 1-1h32a1 1 0 0 1 1 1v10.14a1 1 0 0 1 -2 0v-9.14h-30v22h19a1 1 0 0 1 0 2z" fill="#81bce7" style="fill: rgb(0, 0, 0);"></path><path d="m35 40h-22a1 1 0 0 1 -1-1v-8a1 1 0 0 1 1-1h32a1 1 0 0 1 1 1v2.14a1 1 0 0 1 -2 0v-1.14h-30v6h21a1 1 0 0 1 0 2z" fill="#81bce7" style="fill: rgb(0, 0, 0);"></path><path d="m33 48h-12a1 1 0 0 1 -1-1v-24a1 1 0 0 1 1-1h16a1 1 0 0 1 1 1v14.21a1 1 0 1 1 -2 0v-13.21h-14v22h11a1 1 0 0 1 0 2z" fill="#81bce7" style="fill: rgb(0, 0, 0);"></path><path d="m29 48a1 1 0 0 1 -1-1v-24a1 1 0 0 1 2 0v24a1 1 0 0 1 -1 1z" fill="#81bce7" style="fill: rgb(0, 0, 0);"></path><path d="m29 15a3 3 0 0 1 -3-3v-4a3 3 0 0 1 6 0v4a3 3 0 0 1 -3 3zm0-8a1 1 0 0 0 -1 1v4a1 1 0 0 0 2 0v-4a1 1 0 0 0 -1-1z" fill="#232323" style="fill: rgb(0, 0, 0);"></path><path d="m18 15a3 3 0 0 1 -3-3v-4a3 3 0 0 1 6 0v4a3 3 0 0 1 -3 3zm0-8a1 1 0 0 0 -1 1v4a1 1 0 0 0 2 0v-4a1 1 0 0 0 -1-1z" fill="#232323" style="fill: rgb(0, 0, 0);"></path><path d="m40 15a3 3 0 0 1 -3-3v-4a3 3 0 0 1 6 0v4a3 3 0 0 1 -3 3zm0-8a1 1 0 0 0 -1 1v4a1 1 0 0 0 2 0v-4a1 1 0 0 0 -1-1z" fill="#232323" style="fill: rgb(0, 0, 0);"></path><path d="m47 48a3.625 3.625 0 1 1 3.625-3.625 1 1 0 0 1 -2 0 1.625 1.625 0 1 0 -1.625 1.625 1 1 0 0 1 0 2z" fill="#81bce7" style="fill: rgb(0, 0, 0);"></path><path d="m47 53.25a3.629 3.629 0 0 1 -3.625-3.625 1 1 0 0 1 2 0 1.625 1.625 0 1 0 1.625-1.625 1 1 0 0 1 0-2 3.625 3.625 0 0 1 0 7.25z" fill="#81bce7" style="fill: rgb(0, 0, 0);"></path><path d="m47 42.75a1 1 0 0 1 -1-1v-1.75a1 1 0 0 1 2 0v1.75a1 1 0 0 1 -1 1z" fill="#81bce7" style="fill: rgb(0, 0, 0);"></path><path d="m47 55a1 1 0 0 1 -1-1v-1.75a1 1 0 0 1 2 0v1.75a1 1 0 0 1 -1 1z" fill="#81bce7" style="fill: rgb(0, 0, 0);"></path><path d="m47 59a12 12 0 1 1 12-12 12.013 12.013 0 0 1 -12 12zm0-22a10 10 0 1 0 10 10 10.011 10.011 0 0 0 -10-10z" fill="#232323" style="fill: rgb(0, 0, 0);"></path></svg>