<!-- icon666.com - MILLIONS vector ICONS FREE --><svg id="Capa_1" enable-background="new 0 0 512 512" viewBox="0 0 512 512" xmlns="http://www.w3.org/2000/svg"><path d="m209.031 124.014h-58.525c-12.164 0-22.061 9.896-22.061 22.061v81.219h-2.541c-12.164 0-22.061 9.896-22.061 22.061 0 12.164 9.896 22.061 22.061 22.061h2.541v13.732h-2.541c-12.164 0-22.061 9.897-22.061 22.061s9.896 22.061 22.061 22.061h2.541v20.403c0 12.164 9.896 22.061 22.061 22.061 12.164 0 22.061-9.896 22.061-22.061v-20.403h33.021c12.164 0 22.061-9.896 22.061-22.061 0-12.164-9.896-22.061-22.061-22.061h-33.021v-13.732h36.464c40.639 0 73.7-33.062 73.7-73.7 0-40.641-33.061-73.702-73.7-73.702zm0 132.4h-43.964c-4.142 0-7.5 3.358-7.5 7.5v28.732c0 4.142 3.358 7.5 7.5 7.5h40.521c3.893 0 7.061 3.168 7.061 7.061s-3.167 7.061-7.061 7.061h-40.521c-4.142 0-7.5 3.358-7.5 7.5v27.903c0 3.893-3.167 7.061-7.061 7.061-3.893 0-7.061-3.167-7.061-7.061v-27.903c0-4.142-3.358-7.5-7.5-7.5h-10.041c-3.893 0-7.061-3.167-7.061-7.061 0-3.893 3.167-7.061 7.061-7.061h10.041c4.142 0 7.5-3.358 7.5-7.5v-28.732c0-4.142-3.358-7.5-7.5-7.5h-10.041c-3.893 0-7.061-3.167-7.061-7.061s3.167-7.061 7.061-7.061h10.041c4.142 0 7.5-3.358 7.5-7.5v-88.719c0-3.893 3.167-7.061 7.061-7.061h58.525c32.367 0 58.7 26.333 58.7 58.7s-26.333 58.702-58.7 58.702zm-100.512 190.206c-28.464-22.055-52.013-50.676-68.1-82.768-16.867-33.647-25.419-69.934-25.419-107.852 0-64.374 25.068-124.894 70.587-170.413s106.039-70.587 170.413-70.587c33.502 0 65.924 6.741 96.365 20.036 29.409 12.844 55.614 31.174 77.887 54.479 2.862 2.994 7.609 3.102 10.603.24 2.995-2.862 3.102-7.609.24-10.604-23.653-24.75-51.487-44.217-82.728-57.861-32.345-14.127-66.786-21.29-102.367-21.29-68.38 0-132.668 26.628-181.02 74.981-48.351 48.351-74.98 112.639-74.98 181.019 0 40.273 9.087 78.821 27.009 114.573 17.086 34.086 42.095 64.482 72.322 87.904 1.367 1.059 2.984 1.572 4.588 1.572 2.24 0 4.456-.999 5.934-2.907 2.537-3.274 1.94-7.985-1.334-10.522zm355.928-339.267c-2.408-3.37-7.092-4.151-10.462-1.743-3.371 2.408-4.151 7.092-1.744 10.462 29.281 40.99 44.759 89.376 44.759 139.928 0 64.374-25.068 124.894-70.587 170.413s-106.039 70.587-170.413 70.587c-41.219 0-81.893-10.582-117.625-30.603-3.613-2.025-8.184-.737-10.209 2.877-2.024 3.614-.737 8.184 2.877 10.209 37.967 21.273 81.176 32.517 124.957 32.517 68.38 0 132.668-26.629 181.02-74.98 48.352-48.352 74.98-112.64 74.98-181.02 0-53.697-16.444-105.098-47.553-148.647zm-208.447-61.866c-116.077 0-210.513 94.436-210.513 210.513s94.436 210.513 210.513 210.513c31.079 0 60.603-6.776 87.182-18.919.564-.184 1.109-.438 1.624-.759 23.396-10.931 44.462-26.037 62.235-44.36.645-.479 1.215-1.066 1.685-1.745 35.795-37.754 57.786-88.72 57.786-144.729.001-116.078-94.435-210.514-210.512-210.514zm137.297 209.999c-.968 16.214 2.831 32.728 5.182 41.128.082.292.181.578.297.858 1.65 3.969 3.05 8.143 4.162 12.407.013.05.027.101.041.151l-.014-.049.083.341c6.214 24.29 3.747 53.293-6.899 81.848-8.13 8.365-16.995 16.012-26.499 22.824 2.935-4.95 5.646-10.074 8.091-15.331 13.588-29.214 17.876-60.27 11.762-85.204-.076-.311-.172-.618-.288-.917-1.258-3.255-2.523-7.034-3.66-10.929-.088-.301-.194-.596-.319-.883-1.09-2.512-2.275-4.884-3.521-7.049-12.297-21.377-29.807-23.08-39.15-22.196-16.486 1.56-32.433 12.885-37.093 26.345-.617 1.781-1.891 3.216-3.587 4.04-1.697.824-3.613.937-5.395.321-1.782-.617-3.217-1.891-4.042-3.588-.824-1.696-.938-3.612-.321-5.394 5.603-16.183 22.303-30.063 41.558-34.539 2.219-.516 4.083-2.012 5.066-4.067.984-2.055.98-4.445-.009-6.497-4.478-9.284-7.676-19.819-9.505-31.313-3.873-24.338.29-44.938 11.724-58.004 2.563-2.929 7.033-3.228 9.963-.664 1.419 1.242 2.27 2.962 2.396 4.844.125 1.882-.489 3.7-1.731 5.119-8.498 9.711-11.561 26.655-8.405 46.484 1.335 8.389 4.133 17.802 7.677 25.825 4.283 9.697 9.116 16.446 14.363 20.061.415.286.857.528 1.32.726.652.277 1.297.569 1.938.874 2.279 1.086 4.95.953 7.108-.354 2.159-1.306 3.517-3.61 3.613-6.131.91-23.876 9.701-39.806 26.128-47.347 1.714-.786 3.632-.858 5.4-.203 1.768.656 3.175 1.961 3.962 3.675s.859 3.631.203 5.4c-.655 1.768-1.961 3.175-3.675 3.962-7.471 3.431-16.645 12.014-17.924 33.426zm26.03 107.853c3.239-19.938 2.7-39.352-1.752-56.755-.043-.188-.089-.375-.141-.561-1.243-4.754-2.799-9.419-4.628-13.875-6.641-24.02-7.168-51.018 4.672-56.454 5.356-2.458 9.433-6.854 11.482-12.379s1.823-11.517-.635-16.872-6.855-9.433-12.379-11.481c-5.526-2.049-11.518-1.824-16.873.635-17.242 7.915-28.396 22.748-32.806 43.364-3.632-7.156-6.841-16.769-8.269-25.742-2.381-14.964-.512-28.087 4.88-34.249 3.881-4.435 5.802-10.115 5.41-15.995s-3.05-11.255-7.485-15.135c-9.155-8.01-23.12-7.079-31.128 2.075-14.419 16.479-19.834 41.423-15.249 70.239 1.554 9.768 4.008 18.963 7.317 27.445-20.397 7.389-37.435 23.354-43.789 41.706-1.928 5.568-1.572 11.554 1.003 16.854 2.574 5.301 7.059 9.282 12.628 11.21 5.567 1.927 11.553 1.571 16.854-1.003 5.301-2.575 9.282-7.059 11.209-12.627 2.719-7.855 13.862-15.328 24.333-16.318 10.223-.968 18.548 3.99 24.733 14.743.899 1.563 1.766 3.285 2.58 5.125 1.179 3.997 2.438 7.758 3.75 11.194 5.153 21.611 1.189 48.861-10.903 74.857-7.129 15.327-16.666 29.403-27.624 40.816-24.567 11.147-51.829 17.359-80.517 17.359-107.806 0-195.513-87.706-195.513-195.513s87.707-195.515 195.513-195.515 195.513 87.707 195.513 195.513c0 39.615-11.855 76.507-32.186 107.339zm-210.296-210.204h-43.964c-4.142 0-7.5 3.358-7.5 7.5v74.158c0 4.142 3.358 7.5 7.5 7.5h43.964c24.581 0 44.579-19.998 44.579-44.579s-19.998-44.579-44.579-44.579zm0 74.158h-36.464v-59.158h36.464c16.31 0 29.579 13.269 29.579 29.579s-13.269 29.579-29.579 29.579z"></path></svg>