<!-- icon666.com - MILLIONS vector ICONS FREE --><svg id="Capa_1" enable-background="new 0 0 512.257 512.257" viewBox="0 0 512.257 512.257" xmlns="http://www.w3.org/2000/svg"><g><g id="Page-1_9_"><g id="_x30_10---Technology-Repair" transform="translate(-1 -1)"><path id="Shape_30_" d="m35.263 222.945c-17.754-.066-32.595 13.489-34.133 31.177s10.741 33.601 28.24 36.599c17.499 2.999 34.376-7.919 38.814-25.109h94.993c0 .316.085.623.085.939v33.195h-68.266c-14.138 0-25.6 11.462-25.6 25.6v26.812c-16.643 4.297-27.494 20.299-25.328 37.35s16.673 29.832 33.861 29.832 31.695-12.781 33.861-29.832-8.685-33.053-25.328-37.35v-26.812c0-4.713 3.821-8.533 8.533-8.533h68.267v25.6c.058 15.517 10.575 29.042 25.6 32.922v69.478c0 4.713-3.82 8.533-8.533 8.533h-26.812c-4.297-16.643-20.299-27.494-37.35-25.328s-29.832 16.673-29.832 33.861 12.781 31.695 29.832 33.861 33.053-8.685 37.35-25.328h26.812c14.138 0 25.6-11.462 25.6-25.6v-68.267h42.667v69.478c-16.643 4.297-27.494 20.299-25.328 37.35s16.673 29.832 33.861 29.832 31.695-12.781 33.861-29.832-8.685-33.053-25.328-37.35v-69.478h42.667v68.267c0 14.138 11.462 25.6 25.6 25.6h26.812c4.297 16.643 20.299 27.494 37.35 25.328s29.832-16.673 29.832-33.861-12.781-31.695-29.832-33.861-33.053 8.685-37.35 25.328h-26.812c-4.713 0-8.533-3.821-8.533-8.533v-69.478c15.025-3.879 25.542-17.404 25.6-32.922v-25.6h68.267c4.713 0 8.533 3.82 8.533 8.533v26.812c-16.643 4.297-27.494 20.299-25.328 37.35s16.673 29.832 33.861 29.832 31.695-12.781 33.861-29.832-8.685-33.053-25.328-37.35v-26.812c0-14.138-11.462-25.6-25.6-25.6h-68.267v-34.133h95.078c4.297 16.643 20.299 27.494 37.35 25.328s29.832-16.673 29.832-33.861-12.781-31.695-29.832-33.861-33.053 8.685-37.35 25.328h-92.16l20.147-67.149c1.673-5.567 2.527-11.348 2.534-17.161v-34.884c2.328.512 4.342 1.964 5.564 4.011 11.9 20.25 32.259 34.091 55.467 37.709 3.269.45 6.565.675 9.865.674 23.624-.316 45.943-10.89 61.15-28.971 4.73-5.416 5.814-13.115 2.765-19.627-3.056-6.726-9.747-11.058-17.135-11.093l-24.593-.043h-.068c-1.525-.003-2.957-.731-3.857-1.963-.2-.28-.42-.545-.657-.794l-10.701-11.392c-1.232-1.526-1.398-3.652-.418-5.35l11.486-12.57c1.119-1.304 2.729-2.083 4.446-2.15l24.201-.085c7.264.143 13.946-3.959 17.107-10.501s2.222-14.326-2.404-19.929c-14.917-18.003-36.922-28.634-60.297-29.133-27.219.466-52.271 14.945-66.261 38.298-1.274 2.137-3.396 3.633-5.837 4.113-.665-11.757-6.905-22.49-16.794-28.885-10.061-6.413-22.855-6.692-33.186-.725-1.08.598-2.126 1.256-3.132 1.971-3.826-11.257-13.176-19.752-24.747-22.485-10.025-2.228-20.518.245-28.493 6.716-.401.324-.802.657-1.186.998-2.844-4.914-6.846-9.059-11.657-12.075-10.058-6.422-22.857-6.702-33.186-.725-5.314 2.986-9.783 7.273-12.988 12.459-6.178-5.297-14.049-8.203-22.187-8.192-18.748.248-33.885 15.386-34.133 34.133v17.067h-15.36c-3.032-.037-5.825-1.655-7.364-4.267-13.961-23.397-39.02-37.919-66.261-38.4-23.35.502-45.33 11.12-60.237 29.099-4.668 5.419-5.696 13.084-2.62 19.541 3.029 6.672 9.689 10.947 17.015 10.923h.196l24.525.085c1.849.11 3.55 1.051 4.625 2.56l10.633 11.571c1.251 1.515 1.447 3.641.495 5.359l-11.204 12.075c-.209.217-.401.451-.572.7-1.073 1.208-2.6 1.916-4.215 1.954l-24.371.085c-7.397.022-14.105 4.347-17.178 11.076-3.04 6.487-1.966 14.156 2.739 19.558 15.207 18.097 37.532 28.686 61.167 29.013 16.518.008 32.531-5.7 45.321-16.154v32.282c.013 8.135 2.92 15.999 8.201 22.187l32.981 38.485h-85.06c-3.879-15.025-17.404-25.543-32.921-25.601zm0 51.2c-9.426 0-17.067-7.641-17.067-17.067s7.641-17.067 17.067-17.067 17.067 7.641 17.067 17.067-7.642 17.067-17.067 17.067zm59.733 110.934c0 9.426-7.641 17.067-17.067 17.067s-17.067-7.641-17.067-17.067 7.641-17.067 17.067-17.067 17.067 7.641 17.067 17.067zm25.6 93.866c-9.426 0-17.067-7.641-17.067-17.067s7.641-17.067 17.067-17.067 17.067 7.641 17.067 17.067-7.641 17.067-17.067 17.067zm153.6 0c0 9.426-7.641 17.067-17.067 17.067s-17.067-7.641-17.067-17.067 7.641-17.067 17.067-17.067c9.426.001 17.067 7.642 17.067 17.067zm119.467-34.133c9.426 0 17.067 7.641 17.067 17.067s-7.641 17.067-17.067 17.067-17.067-7.641-17.067-17.067 7.641-17.067 17.067-17.067zm59.733-59.733c0 9.426-7.641 17.067-17.067 17.067s-17.067-7.641-17.067-17.067 7.641-17.067 17.067-17.067 17.067 7.641 17.067 17.067zm25.6-145.067c9.426 0 17.067 7.641 17.067 17.067s-7.641 17.067-17.067 17.067-17.067-7.641-17.067-17.067 7.641-17.067 17.067-17.067zm-82.184-174.66c10.876-18.299 30.422-29.692 51.703-30.14 18.365.492 35.613 8.929 47.275 23.125.324.344.373.864.119 1.263-.304.662-.979 1.073-1.707 1.041l-24.107.085c-6.77-.022-13.201 2.963-17.553 8.149l-11.631 12.663c-6.255 8.141-6.039 19.528.521 27.426l10.863 11.58c4.109 5.523 10.646 8.705 17.527 8.533l24.422.085c.714.009 1.356.437 1.638 1.092.275.454.193 1.039-.196 1.399-13.635 16.393-34.589 24.846-55.782 22.502-18.096-2.919-33.932-13.794-43.153-29.636-4.3-7.146-11.832-11.729-20.156-12.262v-34.651c8.339-.53 15.89-5.107 20.217-12.254zm-322.509 88.806c-21.197 2.344-42.154-6.116-55.782-22.519-.354-.359-.414-.914-.145-1.34.294-.677.969-1.108 1.707-1.092l24.166-.128c6.887.119 13.434-2.987 17.698-8.397l11.358-12.271c6.28-8.116 6.106-19.497-.418-27.418l-10.702-11.648c-4.218-5.517-10.797-8.713-17.741-8.619l-24.431-.085c-.71.028-1.362-.387-1.638-1.041-.257-.415-.193-.953.154-1.297 11.65-14.173 28.875-22.597 47.215-23.091 21.302.446 40.863 11.863 51.729 30.191 4.605 7.712 12.914 12.446 21.897 12.476h15.36v34.219h-15.36c-8.988 0-17.309 4.738-21.897 12.467-3.103 5.107-6.9 9.76-11.281 13.824-8.69 8.503-19.857 14.025-31.889 15.769zm54.826 33.715v-50.261c.981-1.408 2.065-2.731 2.961-4.198 1.51-2.617 4.292-4.239 7.313-4.267h15.326v16.998c0 4.713 3.821 8.533 8.533 8.533 4.713 0 8.533-3.82 8.533-8.533v-102.4c.346-9.278 7.788-16.72 17.067-17.067 9.426 0 17.067 7.641 17.067 17.067v68.267c0 4.713 3.82 8.533 8.533 8.533s8.533-3.821 8.533-8.533v-76.8c.278-6.295 3.842-11.982 9.387-14.976 4.946-2.892 11.099-2.75 15.906.367 5.695 3.829 9.031 10.309 8.841 17.169v74.24c0 4.713 3.82 8.533 8.533 8.533s8.533-3.821 8.533-8.533v-68.267c.087-5.194 2.503-10.075 6.579-13.295 3.94-3.232 9.147-4.475 14.123-3.371 8.124 2.18 13.683 9.658 13.431 18.065v75.401c0 4.713 3.82 8.533 8.533 8.533s8.533-3.821 8.533-8.533v-59.733c.278-6.295 3.842-11.982 9.387-14.976 4.945-2.896 11.1-2.754 15.906.367 5.695 3.829 9.031 10.309 8.841 17.169v100.864c.001 4.151-.606 8.279-1.801 12.254l-21.24 70.938c-1.682 5.566-2.544 11.346-2.56 17.161v77.824c0 9.426-7.641 17.067-17.067 17.067h-119.464c-9.426 0-17.067-7.641-17.067-17.067v-75.861c-.013-8.135-2.92-15.999-8.201-22.187l-38.895-45.38c-2.643-3.1-4.098-7.038-4.104-11.112z"></path></g></g></g></svg>