<!-- icon666.com - MILLIONS vector ICONS FREE --><svg version="1.1" id="Layer_1" xmlns="http://www.w3.org/2000/svg" xmlns:xlink="http://www.w3.org/1999/xlink" x="0px" y="0px" viewBox="0 0 512.001 512.001" style="enable-background:new 0 0 512.001 512.001;" xml:space="preserve"><g><g><path d="M507.105,388.858c-5.574-5.574-126.173-126.173-132.858-132.857l79.986-79.986c32.599-32.601,32.599-85.645-0.001-118.247 c-32.6-32.599-85.646-32.599-118.246,0l-79.985,79.985c-0.001,0-127.889-127.887-132.858-132.856 c-6.527-6.527-17.119-6.53-23.649,0L4.898,99.495c-6.531,6.531-6.531,17.118,0,23.649l132.858,132.858l-64.377,64.377 c-2.018,2.018-3.567,4.658-4.324,7.482L34.257,457.253c-3.34,12.417,8.056,23.836,20.492,20.492l129.394-34.797 c2.729-0.734,5.418-2.26,7.482-4.324l64.377-64.377L388.86,507.104c6.526,6.526,17.119,6.53,23.649,0l94.597-94.597 C513.632,405.98,513.635,395.388,507.105,388.858z M359.635,81.419c19.561-19.56,51.387-19.559,70.948,0 c19.56,19.561,19.56,51.387,0,70.948l-9.038,9.038c-1.997-1.997-68.946-68.946-70.948-70.948L359.635,81.419z M40.372,111.318 l70.948-70.948l23.649,23.649l-11.824,11.825c-6.531,6.531-6.531,17.118,0,23.649c6.53,6.531,17.118,6.532,23.649,0l11.824-11.825 l26.436,26.436l-35.474,35.474c-6.531,6.53-6.531,17.118,0,23.649c6.531,6.53,17.118,6.532,23.649,0l35.474-35.474l23.649,23.649 l-70.948,70.948L40.372,111.318z M326.95,114.104l23.65,23.65L132.502,355.851l-23.649-23.649 C120.233,320.822,315.753,125.301,326.95,114.104z M74.092,437.91l19.746-73.424l53.678,53.678L74.092,437.91z M179.8,403.15 l-23.649-23.65l218.097-218.097l23.649,23.65L179.8,403.15z M400.683,471.631L279.651,350.597l70.948-70.948l23.649,23.65 l-35.474,35.474c-6.531,6.531-6.531,17.118,0,23.649c6.53,6.531,17.118,6.532,23.649,0l35.474-35.474l23.65,23.65l-11.825,11.825 c-6.531,6.531-6.531,17.118,0,23.649c6.53,6.531,17.118,6.532,23.649,0l11.825-11.825l26.436,26.436L400.683,471.631z"></path></g></g></svg>