<!-- icon666.com - MILLIONS vector ICONS FREE --><svg enable-background="new 0 0 512 512" viewBox="0 0 512 512" xmlns="http://www.w3.org/2000/svg"><g id="_x31_6_x2C__ruble"><g id="XMLID_402_"><g id="XMLID_406_"><g id="XMLID_414_"><path id="XMLID_190_" d="m281 266h-55c-5.523 0-10-4.478-10-10v-70c0-5.523 4.477-10 10-10h55c24.813 0 45 20.187 45 45s-20.187 45-45 45zm-45-20h45c13.785 0 25-11.215 25-25s-11.215-25-25-25h-45z"></path></g><g id="XMLID_410_"><path id="XMLID_189_" d="m226 336c-5.523 0-10-4.478-10-10v-70c0-5.523 4.477-10 10-10s10 4.477 10 10v70c0 5.522-4.477 10-10 10z"></path></g><g id="XMLID_409_"><path id="XMLID_188_" d="m256 266h-60c-5.523 0-10-4.478-10-10 0-5.523 4.477-10 10-10h60c5.522 0 10 4.477 10 10 0 5.522-4.478 10-10 10z"></path></g><g id="XMLID_408_"><path id="XMLID_187_" d="m256 306h-60c-5.523 0-10-4.478-10-10s4.477-10 10-10h60c5.522 0 10 4.478 10 10s-4.478 10-10 10z"></path></g></g><g id="XMLID_405_"><path id="XMLID_184_" d="m486 406h-460c-5.523 0-10-4.478-10-10v-280c0-5.523 4.477-10 10-10h460c5.522 0 10 4.477 10 10v280c0 5.522-4.478 10-10 10zm-450-20h440v-260h-440z"></path></g><g id="XMLID_403_"><path id="XMLID_177_" d="m406 366h-300c-5.523 0-10-4.478-10-10 0-16.542-13.458-30-30-30-5.523 0-10-4.478-10-10v-120c0-5.523 4.477-10 10-10 16.542 0 30-13.458 30-30 0-5.523 4.477-10 10-10h300c5.522 0 10 4.477 10 10 0 16.542 13.458 30 30 30 5.522 0 10 4.477 10 10v120c0 5.522-4.478 10-10 10-16.542 0-30 13.458-30 30 0 5.522-4.478 10-10 10zm-291.004-20h282.009c3.987-19.562 19.434-35.008 38.995-38.995v-102.009c-19.562-3.987-35.008-19.435-38.995-38.996h-282.009c-3.987 19.561-19.435 35.008-38.996 38.996v102.009c19.561 3.987 35.008 19.433 38.996 38.995z"></path></g></g></g></svg>